<!DOCTYPE svg PUBLIC "-//W3C//DTD SVG 1.1//EN" "http://www.w3.org/Graphics/SVG/1.1/DTD/svg11.dtd">
<!-- Uploaded to: SVG Repo, www.svgrepo.com, Transformed by: SVG Repo Mixer Tools -->
<svg fill="#F0A500" height="800px" width="800px" version="1.1" id="Layer_1" xmlns="http://www.w3.org/2000/svg" xmlns:xlink="http://www.w3.org/1999/xlink" viewBox="0 0 511.2 511.2" xml:space="preserve" stroke="#F0A500">
<g id="SVGRepo_bgCarrier" stroke-width="0"/>
<g id="SVGRepo_tracerCarrier" stroke-linecap="round" stroke-linejoin="round"/>
<g id="SVGRepo_iconCarrier"> <g> <g> <path d="M510,83.395c-1.6-4.8-8-8-12.8-8H494c-12.8-1.6-28.8-4.8-44.8-3.2c1.6-25.6-4.8-51.2-17.6-65.6c-4.8-6.4-12.8-8-20.8-3.2 c-22.4,11.2-43.2,36.8-56,67.2c-6.4,12.8-9.6,25.6-12.8,40c-11.2-3.2-22.4-6.4-35.2-6.4c-27.2,0-51.2,9.6-70.4,28.8 c-28.8,28.8-203.2,243.2-235.2,331.2c-3.2,12.8,0,27.2,9.6,35.2c6.4,6.4,16,11.2,25.6,11.2c3.2,0,6.4,0,11.2-1.6 c86.4-32,300.8-206.4,329.6-235.2c27.2-27.2,35.2-67.2,24-102.4c16-1.6,30.4-3.2,44.8-9.6c30.4-14.4,51.2-33.6,64-64 C511.6,92.995,511.6,88.196,510,83.395z M38,478.595c-1.6,0-3.2,0-4.8-1.6c-1.6-1.6-1.6-3.2-1.6-3.2c8-19.2,22.4-46.4,41.6-76.8 l40,40C84.4,456.195,57.2,470.595,38,478.595z M370.8,227.395l-59.2-59.2c-6.4-6.4-16-6.4-22.4,0c-6.4,6.4-6.4,16,0,22.4l64,64 c-4.8,4.8-11.2,11.2-20.8,19.2l-30.4-30.4c-6.4-6.4-16-6.4-22.4,0c-6.4,6.4-6.4,16,0,22.4l28.8,28.8c-6.4,4.8-14.4,11.2-22.4,17.6 l-36.8-36.8c-6.4-6.4-16-6.4-22.4,0c-6.4,6.4-6.4,16,0,22.4l35.2,35.2c-20.8,17.6-44.8,35.2-68.8,52.8l-20.8-20.8 c-6.4-6.4-16-6.4-22.4,0c-6.4,6.4-6.4,16,0,22.4l17.6,17.6c-8,6.4-16,11.2-24,16l-48-48c4.8-8,11.2-16,16-24c0,0,4.8,1.6,8,1.6 c4.8,0,8-1.6,11.2-4.8c6.4-6.4,6.4-16,0-22.4l-3.2-3.2c4.8-6.4,9.6-14.4,16-20.8l43.2,43.2c3.2,3.2,8,4.8,11.2,4.8 c3.2,0,8-1.6,11.2-4.8c6.4-6.4,6.4-16,0-22.4l-46.4-46.4c6.4-8,11.2-14.4,17.6-22.4c3.2,3.2,6.4,3.2,9.6,3.2c4.8,0,8-1.6,11.2-4.8 c6.4-6.4,6.4-16,0-22.4l-1.6-1.6c6.4-8,12.8-14.4,17.6-22.4l19.2,19.2c3.2,3.2,8,4.8,11.2,4.8s8-1.6,11.2-4.8 c6.4-6.4,6.4-16,0-22.4l-22.4-22.4c9.6-11.2,17.6-19.2,20.8-24c14.4-11.2,32-17.6,49.6-17.6c17.6,0,35.2,6.4,48,19.2 C374,174.595,378.8,203.395,370.8,227.395z M417.2,75.395c-1.6,14.4-9.6,41.6-35.2,62.4c-1.6-1.6-3.2-3.2-4.8-4.8 c-1.6-1.6-4.8-4.8-6.4-6.4c1.6-14.4,6.4-28.8,12.8-43.2c8-17.6,19.2-33.6,30.4-44.8C417.2,48.195,418.8,60.995,417.2,75.395z M431.6,131.395c-1.6,0-3.2,1.6-3.2,1.6c6.4-9.6,11.2-19.2,14.4-28.8c8-1.6,17.6-1.6,25.6,0 C460.4,115.395,449.2,124.995,431.6,131.395z"/> </g> </g> </g>
</svg>